<svg xmlns="http://www.w3.org/2000/svg" version="1.1" xmlns:xlink="http://www.w3.org/1999/xlink" xmlns:svgjs="http://svgjs.com/svgjs" width="1440" height="560" preserveAspectRatio="none" viewBox="0 0 1440 560"><g mask="url(&quot;#SvgjsMask1004&quot;)" fill="none"><rect width="1440" height="560" x="0" y="0" fill="rgba(67, 154, 151, 1)"></rect><path d="M 0,139 C 57.6,151.8 172.8,222.2 288,203 C 403.2,183.8 460.8,45.6 576,43 C 691.2,40.4 748.8,190 864,190 C 979.2,190 1036.8,32.8 1152,43 C 1267.2,53.2 1382.4,201.4 1440,241L1440 560L0 560z" fill="rgba(151, 222, 206, 1)"></path><path d="M 0,538 C 96,495.8 288,342.4 480,327 C 672,311.6 768,457.8 960,461 C 1152,464.2 1344,366.6 1440,343L1440 560L0 560z" fill="rgba(203, 237, 213, 1)"></path></g><defs><mask id="SvgjsMask1004"><rect width="1440" height="560" fill="#ffffff"></rect></mask></defs></svg>